<?xml version="1.0" standalone="no"?><!-- Generator: Gravit.io --><svg xmlns="http://www.w3.org/2000/svg" xmlns:xlink="http://www.w3.org/1999/xlink" style="isolation:isolate" viewBox="0 0 75 75" width="75" height="75"><defs><clipPath id="_clipPath_ZsRKcvIuj6oo0YGyP1Ywnn97rX3cZwYI"><rect width="75" height="75"/></clipPath></defs><g clip-path="url(#_clipPath_ZsRKcvIuj6oo0YGyP1Ywnn97rX3cZwYI)"><g><mask id="_mask_EUsZRl4HfC5K9F3r4X9NSjVY07jQ05gP" x="-200%" y="-200%" width="400%" height="400%"><rect x="-200%" y="-200%" width="400%" height="400%" style="fill:white;"/><polygon points="42.467,60.045,17.467,60.008,5,38.338,17.533,16.706,42.533,16.744,55,38.413" fill="black" stroke="none"/></mask><polygon points="42.467,60.045,17.467,60.008,5,38.338,17.533,16.706,42.533,16.744,55,38.413" fill="rgb(255,255,255)" mask="url(#_mask_EUsZRl4HfC5K9F3r4X9NSjVY07jQ05gP)" vector-effect="non-scaling-stroke" stroke-width="2" stroke="rgb(96,96,96)" stroke-linejoin="miter" stroke-linecap="butt" stroke-miterlimit="4"/><mask id="_mask_x2n6scjpWxOZI6crtbjw10mtIH6MvCxD" x="-200%" y="-200%" width="400%" height="400%"><rect x="-200%" y="-200%" width="400%" height="400%" style="fill:white;"/><line x1="20" y1="18.376" x2="41" y2="18.376" fill="black" stroke="none"/></mask><line x1="20" y1="18.376" x2="41" y2="18.376" mask="url(#_mask_x2n6scjpWxOZI6crtbjw10mtIH6MvCxD)" vector-effect="non-scaling-stroke" stroke-width="1" stroke="rgb(96,96,96)" stroke-linejoin="miter" stroke-linecap="butt" stroke-miterlimit="4"/><mask id="_mask_IAaIMOlHjgB7wQK8qx4D7e7VK2duMo08" x="-200%" y="-200%" width="400%" height="400%"><rect x="-200%" y="-200%" width="400%" height="400%" style="fill:white;"/><line x1="42" y1="57.687" x2="52.5" y2="39.5" fill="black" stroke="none"/></mask><line x1="42" y1="57.687" x2="52.5" y2="39.5" mask="url(#_mask_IAaIMOlHjgB7wQK8qx4D7e7VK2duMo08)" vector-effect="non-scaling-stroke" stroke-width="1" stroke="rgb(96,96,96)" stroke-linejoin="miter" stroke-linecap="butt" stroke-miterlimit="4"/><mask id="_mask_q4gNFPUoZxEvUxHk0Vvg5r1QKvP6dv2t" x="-200%" y="-200%" width="400%" height="400%"><rect x="-200%" y="-200%" width="400%" height="400%" style="fill:white;"/><line x1="18" y1="57.687" x2="7.5" y2="39.5" fill="black" stroke="none"/></mask><line x1="18" y1="57.687" x2="7.5" y2="39.5" mask="url(#_mask_q4gNFPUoZxEvUxHk0Vvg5r1QKvP6dv2t)" vector-effect="non-scaling-stroke" stroke-width="1" stroke="rgb(96,96,96)" stroke-linejoin="miter" stroke-linecap="butt" stroke-miterlimit="4"/><path d=" M 29.166 34.097 L 29.166 34.097 L 29.7 17.429 L 29.7 17.429 Q 29.983 12.627 31.27 9.456 L 31.27 9.456 L 31.27 9.456 Q 32.117 7.416 33.608 6.396 L 33.608 6.396 L 33.608 6.396 Q 35.099 5.376 36.512 5.376 L 36.512 5.376 L 36.512 5.376 Q 38.081 5.376 39.258 6.427 L 39.258 6.427 L 39.258 6.427 Q 40.435 7.479 40.435 8.735 L 40.435 8.735 L 40.435 8.735 Q 40.435 10.21 39.603 11.104 L 39.603 11.104 L 39.603 11.104 Q 38.772 11.999 37.547 11.999 L 37.547 11.999 L 37.547 11.999 Q 36.449 11.999 35.162 10.869 L 35.162 10.869 L 35.162 10.869 Q 34.44 10.241 33.906 10.241 L 33.906 10.241 L 33.906 10.241 Q 33.373 10.241 33.012 10.696 L 33.012 10.696 L 33.012 10.696 Q 32.651 11.151 32.651 12.25 L 32.651 12.25 L 32.651 12.25 Q 32.651 13.568 32.933 16.802 L 32.933 16.802 L 32.933 16.802 Q 34.095 29.671 34.095 37.676 L 34.095 37.676 L 34.095 37.676 Q 34.095 39.779 33.592 56.133 L 33.592 56.133 L 33.592 56.133 Q 33.341 65.393 30.767 68.657 L 30.767 68.657 L 30.767 68.657 Q 29.072 70.76 26.561 70.76 L 26.561 70.76 L 26.561 70.76 Q 24.929 70.76 23.893 69.693 L 23.893 69.693 L 23.893 69.693 Q 22.857 68.626 22.857 66.962 L 22.857 66.962 L 22.857 66.962 Q 22.857 65.55 23.658 64.702 L 23.658 64.702 L 23.658 64.702 Q 24.458 63.854 25.682 63.854 L 25.682 63.854 L 25.682 63.854 Q 26.938 63.854 27.848 64.859 L 27.848 64.859 L 27.848 64.859 Q 28.758 65.863 29.386 65.863 L 29.386 65.863 L 29.386 65.863 Q 29.92 65.863 30.265 65.424 L 30.265 65.424 L 30.265 65.424 Q 30.61 64.985 30.61 63.949 L 30.61 63.949 L 30.61 63.949 Q 30.61 62.63 30.328 60.182 L 30.328 60.182 L 30.328 60.182 Q 29.166 50.294 29.166 34.097 Z " fill="rgb(96,96,96)"/></g><path d=" M 60 11.548 L 65.206 11.548 C 65.89 11.548 66.536 11.618 67.144 11.757 C 67.765 11.884 68.303 12.105 68.759 12.422 C 69.228 12.726 69.595 13.144 69.861 13.676 C 70.14 14.195 70.279 14.848 70.279 15.633 C 70.279 16.583 70.032 17.394 69.538 18.065 C 69.044 18.724 68.322 19.142 67.372 19.319 L 70.792 25 L 67.239 25 L 64.427 19.623 L 62.964 19.623 L 62.964 25 L 60 25 L 60 11.548 Z  M 62.964 17.115 L 64.712 17.115 C 64.978 17.115 65.257 17.109 65.548 17.096 C 65.852 17.071 66.124 17.014 66.365 16.925 C 66.606 16.824 66.802 16.672 66.954 16.469 C 67.119 16.266 67.201 15.981 67.201 15.614 C 67.201 15.272 67.131 15 66.992 14.797 C 66.853 14.594 66.675 14.442 66.46 14.341 C 66.245 14.227 65.998 14.151 65.719 14.113 C 65.44 14.075 65.168 14.056 64.902 14.056 L 62.964 14.056 L 62.964 17.115 Z " fill="rgb(255,255,255)" vector-effect="non-scaling-stroke" stroke-width="0.5" stroke="rgb(96,96,96)" stroke-linejoin="miter" stroke-linecap="butt" stroke-miterlimit="4"/><path d=" M 68.519 34.838 C 68.228 34.483 67.867 34.211 67.436 34.021 C 67.018 33.831 66.53 33.736 65.973 33.736 C 65.416 33.736 64.896 33.844 64.415 34.059 C 63.946 34.274 63.535 34.578 63.18 34.971 C 62.838 35.351 62.566 35.807 62.363 36.339 C 62.173 36.871 62.078 37.447 62.078 38.068 C 62.078 38.701 62.173 39.284 62.363 39.816 C 62.566 40.335 62.838 40.791 63.18 41.184 C 63.522 41.564 63.921 41.862 64.377 42.077 C 64.846 42.292 65.346 42.4 65.878 42.4 C 66.486 42.4 67.024 42.273 67.493 42.02 C 67.962 41.767 68.348 41.412 68.652 40.956 L 71.122 42.799 C 70.552 43.597 69.83 44.186 68.956 44.566 C 68.082 44.946 67.183 45.136 66.258 45.136 C 65.207 45.136 64.238 44.971 63.351 44.642 C 62.464 44.313 61.698 43.844 61.052 43.236 C 60.406 42.615 59.899 41.868 59.532 40.994 C 59.177 40.12 59 39.145 59 38.068 C 59 36.991 59.177 36.016 59.532 35.142 C 59.899 34.268 60.406 33.527 61.052 32.919 C 61.698 32.298 62.464 31.823 63.351 31.494 C 64.238 31.165 65.207 31 66.258 31 C 66.638 31 67.031 31.038 67.436 31.114 C 67.854 31.177 68.259 31.285 68.652 31.437 C 69.057 31.589 69.444 31.792 69.811 32.045 C 70.178 32.298 70.508 32.609 70.799 32.976 L 68.519 34.838 Z " fill="rgb(0,57,166)" vector-effect="non-scaling-stroke" stroke-width="0.5" stroke="rgb(96,96,96)" stroke-linejoin="miter" stroke-linecap="butt" stroke-miterlimit="4"/><path d=" M 68.06 54.956 C 67.807 54.636 67.46 54.403 67.02 54.256 C 66.593 54.096 66.187 54.016 65.8 54.016 C 65.573 54.016 65.34 54.043 65.1 54.096 C 64.86 54.149 64.633 54.236 64.42 54.356 C 64.207 54.463 64.033 54.609 63.9 54.796 C 63.767 54.983 63.7 55.209 63.7 55.476 C 63.7 55.903 63.86 56.229 64.18 56.456 C 64.5 56.683 64.9 56.876 65.38 57.036 C 65.873 57.196 66.4 57.356 66.96 57.516 C 67.52 57.676 68.04 57.903 68.52 58.196 C 69.013 58.489 69.42 58.883 69.74 59.376 C 70.06 59.869 70.22 60.529 70.22 61.356 C 70.22 62.143 70.073 62.829 69.78 63.416 C 69.487 64.003 69.087 64.489 68.58 64.876 C 68.087 65.263 67.507 65.549 66.84 65.736 C 66.187 65.923 65.493 66.016 64.76 66.016 C 63.84 66.016 62.987 65.876 62.2 65.596 C 61.413 65.316 60.68 64.863 60 64.236 L 62.22 61.796 C 62.54 62.223 62.94 62.556 63.42 62.796 C 63.913 63.023 64.42 63.136 64.94 63.136 C 65.193 63.136 65.447 63.109 65.7 63.056 C 65.967 62.989 66.2 62.896 66.4 62.776 C 66.613 62.656 66.78 62.503 66.9 62.316 C 67.033 62.129 67.1 61.909 67.1 61.656 C 67.1 61.229 66.933 60.896 66.6 60.656 C 66.28 60.403 65.873 60.189 65.38 60.016 C 64.887 59.843 64.353 59.669 63.78 59.496 C 63.207 59.323 62.673 59.089 62.18 58.796 C 61.687 58.503 61.273 58.116 60.94 57.636 C 60.62 57.156 60.46 56.523 60.46 55.736 C 60.46 54.976 60.607 54.309 60.9 53.736 C 61.207 53.163 61.607 52.683 62.1 52.296 C 62.607 51.909 63.187 51.623 63.84 51.436 C 64.493 51.236 65.167 51.136 65.86 51.136 C 66.66 51.136 67.433 51.249 68.18 51.476 C 68.927 51.703 69.6 52.083 70.2 52.616 L 68.06 54.956 Z " fill="rgb(208,11,14)" vector-effect="non-scaling-stroke" stroke-width="0.5" stroke="rgb(96,96,96)" stroke-linejoin="miter" stroke-linecap="butt" stroke-miterlimit="4"/></g></svg>